<?xml version="1.0" encoding="us-ascii" standalone="no"?><svg xmlns="http://www.w3.org/2000/svg" xmlns:xlink="http://www.w3.org/1999/xlink" contentStyleType="text/css" height="581px" preserveAspectRatio="none" style="width:1296px;height:581px;" version="1.1" viewBox="0 0 1296 581" width="1296px" zoomAndPan="magnify"><defs/><g><rect fill="#FFFFFF" height="482.9688" style="stroke:#181818;stroke-width:1.0;" width="10" x="29.5" y="48.8438"/><rect fill="#FFFFFF" height="433.125" style="stroke:#181818;stroke-width:1.0;" width="10" x="467.5" y="98.6875"/><rect fill="#FFFFFF" height="144.375" style="stroke:#181818;stroke-width:1.0;" width="10" x="916.5" y="308.75"/><rect fill="#FFFFFF" height="32.8438" style="stroke:#181818;stroke-width:1.0;" width="10" x="1225.5" y="387.4375"/><line style="stroke:#181818;stroke-width:0.5;stroke-dasharray:5.0,5.0;" x1="34" x2="34" y1="38.8438" y2="574.8125"/><line style="stroke:#181818;stroke-width:0.5;stroke-dasharray:5.0,5.0;" x1="472" x2="472" y1="38.8438" y2="574.8125"/><line style="stroke:#181818;stroke-width:0.5;stroke-dasharray:5.0,5.0;" x1="921" x2="921" y1="38.8438" y2="574.8125"/><line style="stroke:#181818;stroke-width:0.5;stroke-dasharray:5.0,5.0;" x1="1230.5" x2="1230.5" y1="38.8438" y2="574.8125"/><rect fill="#FFFFFF" height="32.8438" rx="2.5" ry="2.5" style="stroke:#000000;stroke-width:1.0;" width="59" x="5" y="5"/><text fill="#000000" font-family="sans-serif" font-size="16" lengthAdjust="spacing" textLength="45" x="12" y="27.4688">: User</text><rect fill="#FFFFFF" height="32.8438" rx="2.5" ry="2.5" style="stroke:#000000;stroke-width:1.0;" width="141" x="402" y="5"/><text fill="#000000" font-family="sans-serif" font-size="16" lengthAdjust="spacing" textLength="127" x="409" y="27.4688">&#3627;&#3609;&#3657;&#3634;&#3648;&#3623;&#3655;&#3610; : Website</text><rect fill="#FFFFFF" height="32.8438" rx="2.5" ry="2.5" style="stroke:#000000;stroke-width:1.0;" width="119" x="862" y="5"/><text fill="#000000" font-family="sans-serif" font-size="16" lengthAdjust="spacing" textLength="105" x="869" y="27.4688">backend : API</text><rect fill="#FFFFFF" height="32.8438" rx="2.5" ry="2.5" style="stroke:#000000;stroke-width:1.0;" width="120" x="1170.5" y="5"/><text fill="#000000" font-family="sans-serif" font-size="16" lengthAdjust="spacing" textLength="106" x="1177.5" y="27.4688">database : DB</text><rect fill="#FFFFFF" height="482.9688" style="stroke:#181818;stroke-width:1.0;" width="10" x="29.5" y="48.8438"/><rect fill="#FFFFFF" height="433.125" style="stroke:#181818;stroke-width:1.0;" width="10" x="467.5" y="98.6875"/><rect fill="#FFFFFF" height="144.375" style="stroke:#181818;stroke-width:1.0;" width="10" x="916.5" y="308.75"/><rect fill="#FFFFFF" height="32.8438" style="stroke:#181818;stroke-width:1.0;" width="10" x="1225.5" y="387.4375"/><polygon fill="#000000" points="455.5,94.6875,465.5,98.6875,455.5,102.6875,459.5,98.6875" style="stroke:#000000;stroke-width:1.0;"/><line style="stroke:#000000;stroke-width:1.0;" x1="39.5" x2="461.5" y1="98.6875" y2="98.6875"/><text fill="#000000" font-family="sans-serif" font-size="16" lengthAdjust="spacing" textLength="244" x="131.5" y="93.3125">1: &#3648;&#3586;&#3657;&#3634;&#3626;&#3641;&#3656;&#3627;&#3609;&#3657;&#3634; "&#3623;&#3634;&#3591;&#3649;&#3612;&#3609;&#3621;&#3591;&#3607;&#3640;&#3609;" (/plan)</text><polygon fill="#000000" points="455.5,127.5313,465.5,131.5313,455.5,135.5313,459.5,131.5313" style="stroke:#000000;stroke-width:1.0;"/><line style="stroke:#000000;stroke-width:1.0;" x1="39.5" x2="461.5" y1="131.5313" y2="131.5313"/><text fill="#000000" font-family="sans-serif" font-size="16" lengthAdjust="spacing" textLength="253" x="127" y="126.1563">2: &#3648;&#3621;&#3639;&#3629;&#3585;&#3649;&#3607;&#3655;&#3610; "&#3614;&#3629;&#3619;&#3660;&#3605;&#3626;&#3635;&#3648;&#3619;&#3655;&#3592;&#3619;&#3641;&#3611; (&#3649;&#3609;&#3632;&#3609;&#3635;)"</text><polygon fill="#000000" points="455.5,160.375,465.5,164.375,455.5,168.375,459.5,164.375" style="stroke:#000000;stroke-width:1.0;"/><line style="stroke:#000000;stroke-width:1.0;" x1="39.5" x2="461.5" y1="164.375" y2="164.375"/><text fill="#000000" font-family="sans-serif" font-size="16" lengthAdjust="spacing" textLength="338" x="84.5" y="159">3: &#3648;&#3621;&#3639;&#3629;&#3585;&#3619;&#3641;&#3611;&#3649;&#3610;&#3610; (&#3648;&#3594;&#3656;&#3609; &#3588;&#3623;&#3634;&#3617;&#3617;&#3633;&#3656;&#3609;&#3588;&#3591;, &#3626;&#3617;&#3604;&#3640;&#3621;, &#3648;&#3605;&#3636;&#3610;&#3650;&#3605;&#3626;&#3641;&#3591;)</text><polygon fill="#000000" points="455.5,193.2188,465.5,197.2188,455.5,201.2188,459.5,197.2188" style="stroke:#000000;stroke-width:1.0;"/><line style="stroke:#000000;stroke-width:1.0;" x1="39.5" x2="461.5" y1="197.2188" y2="197.2188"/><text fill="#000000" font-family="sans-serif" font-size="16" lengthAdjust="spacing" textLength="231" x="138" y="191.8438">4: &#3619;&#3632;&#3610;&#3640; "&#3648;&#3591;&#3636;&#3609;&#3621;&#3591;&#3607;&#3640;&#3609;" &#3649;&#3621;&#3632; "&#3619;&#3632;&#3618;&#3632;&#3648;&#3623;&#3621;&#3634;"</text><polygon fill="#000000" points="455.5,226.0625,465.5,230.0625,455.5,234.0625,459.5,230.0625" style="stroke:#000000;stroke-width:1.0;"/><line style="stroke:#000000;stroke-width:1.0;" x1="39.5" x2="461.5" y1="230.0625" y2="230.0625"/><text fill="#000000" font-family="sans-serif" font-size="16" lengthAdjust="spacing" textLength="203" x="152" y="224.6875">5: &#3585;&#3604;&#3611;&#3640;&#3656;&#3617; "&#3626;&#3619;&#3657;&#3634;&#3591;&#3649;&#3612;&#3609;&#3585;&#3634;&#3619;&#3621;&#3591;&#3607;&#3640;&#3609;"</text><line style="stroke:#000000;stroke-width:1.0;" x1="477.5" x2="519.5" y1="262.9063" y2="262.9063"/><line style="stroke:#000000;stroke-width:1.0;" x1="519.5" x2="519.5" y1="262.9063" y2="275.9063"/><line style="stroke:#000000;stroke-width:1.0;" x1="478.5" x2="519.5" y1="275.9063" y2="275.9063"/><polygon fill="#000000" points="488.5,271.9063,478.5,275.9063,488.5,279.9063,484.5,275.9063" style="stroke:#000000;stroke-width:1.0;"/><text fill="#000000" font-family="sans-serif" font-size="16" lengthAdjust="spacing" textLength="125" x="484.5" y="257.5313">6: &#3649;&#3626;&#3604;&#3591; Loading</text><polygon fill="#000000" points="904.5,304.75,914.5,308.75,904.5,312.75,908.5,308.75" style="stroke:#000000;stroke-width:1.0;"/><line style="stroke:#000000;stroke-width:1.0;" x1="477.5" x2="910.5" y1="308.75" y2="308.75"/><text fill="#000000" font-family="sans-serif" font-size="16" lengthAdjust="spacing" textLength="404" x="495" y="303.375">7: &#3626;&#3656;&#3591;&#3586;&#3657;&#3629;&#3617;&#3641;&#3621;&#3614;&#3629;&#3619;&#3660;&#3605;&#3652;&#3611;&#3618;&#3633;&#3591; API (POST /api/portfolio/preset)</text><line style="stroke:#000000;stroke-width:1.0;" x1="926.5" x2="968.5" y1="341.5938" y2="341.5938"/><line style="stroke:#000000;stroke-width:1.0;" x1="968.5" x2="968.5" y1="341.5938" y2="354.5938"/><line style="stroke:#000000;stroke-width:1.0;" x1="927.5" x2="968.5" y1="354.5938" y2="354.5938"/><polygon fill="#000000" points="937.5,350.5938,927.5,354.5938,937.5,358.5938,933.5,354.5938" style="stroke:#000000;stroke-width:1.0;"/><text fill="#000000" font-family="sans-serif" font-size="16" lengthAdjust="spacing" textLength="285" x="933.5" y="336.2188">7.1: &#3592;&#3633;&#3604;&#3626;&#3619;&#3619;&#3626;&#3633;&#3604;&#3626;&#3656;&#3623;&#3609;&#3627;&#3640;&#3657;&#3609;&#3605;&#3634;&#3617;&#3619;&#3641;&#3611;&#3649;&#3610;&#3610;&#3617;&#3634;&#3605;&#3619;&#3600;&#3634;&#3609;</text><polygon fill="#000000" points="1213.5,383.4375,1223.5,387.4375,1213.5,391.4375,1217.5,387.4375" style="stroke:#000000;stroke-width:1.0;"/><line style="stroke:#000000;stroke-width:1.0;" x1="926.5" x2="1219.5" y1="387.4375" y2="387.4375"/><text fill="#000000" font-family="sans-serif" font-size="16" lengthAdjust="spacing" textLength="185" x="983.5" y="382.0625">7.2: &#3610;&#3633;&#3609;&#3607;&#3638;&#3585;&#3614;&#3629;&#3619;&#3660;&#3605;&#3651;&#3627;&#3617;&#3656;&#3621;&#3591; DB</text><polygon fill="#000000" points="937.5,416.2813,927.5,420.2813,937.5,424.2813,933.5,420.2813" style="stroke:#000000;stroke-width:1.0;"/><line style="stroke:#000000;stroke-width:1.0;stroke-dasharray:2.0,2.0;" x1="931.5" x2="1229.5" y1="420.2813" y2="420.2813"/><text fill="#000000" font-family="sans-serif" font-size="16" lengthAdjust="spacing" textLength="129" x="1014" y="414.9063">7.2.1: &#3610;&#3633;&#3609;&#3607;&#3638;&#3585;&#3626;&#3635;&#3648;&#3619;&#3655;&#3592;</text><polygon fill="#000000" points="488.5,449.125,478.5,453.125,488.5,457.125,484.5,453.125" style="stroke:#000000;stroke-width:1.0;"/><line style="stroke:#000000;stroke-width:1.0;stroke-dasharray:2.0,2.0;" x1="482.5" x2="920.5" y1="453.125" y2="453.125"/><text fill="#000000" font-family="sans-serif" font-size="16" lengthAdjust="spacing" textLength="147" x="626" y="447.75">7.3: &#3626;&#3656;&#3591;&#3612;&#3621;&#3621;&#3633;&#3614;&#3608;&#3660;&#3585;&#3621;&#3633;&#3610;&#3652;&#3611;</text><line style="stroke:#000000;stroke-width:1.0;" x1="477.5" x2="519.5" y1="485.9688" y2="485.9688"/><line style="stroke:#000000;stroke-width:1.0;" x1="519.5" x2="519.5" y1="485.9688" y2="498.9688"/><line style="stroke:#000000;stroke-width:1.0;" x1="478.5" x2="519.5" y1="498.9688" y2="498.9688"/><polygon fill="#000000" points="488.5,494.9688,478.5,498.9688,488.5,502.9688,484.5,498.9688" style="stroke:#000000;stroke-width:1.0;"/><text fill="#000000" font-family="sans-serif" font-size="16" lengthAdjust="spacing" textLength="425" x="484.5" y="480.5938">8: &#3648;&#3611;&#3621;&#3637;&#3656;&#3618;&#3609;&#3627;&#3609;&#3657;&#3634;&#3652;&#3611;&#3618;&#3633;&#3591; "&#3627;&#3609;&#3657;&#3634;&#3619;&#3634;&#3618;&#3621;&#3632;&#3648;&#3629;&#3637;&#3618;&#3604;&#3614;&#3629;&#3619;&#3660;&#3605;" (/dashboard/[id])</text><polygon fill="#000000" points="45.5,527.8125,35.5,531.8125,45.5,535.8125,41.5,531.8125" style="stroke:#000000;stroke-width:1.0;"/><line style="stroke:#000000;stroke-width:1.0;stroke-dasharray:2.0,2.0;" x1="39.5" x2="471.5" y1="531.8125" y2="531.8125"/><text fill="#000000" font-family="sans-serif" font-size="16" lengthAdjust="spacing" textLength="404" x="51.5" y="526.4375">9: &#3649;&#3626;&#3604;&#3591;&#3585;&#3619;&#3634;&#3615; Asset Allocation &#3649;&#3621;&#3632; Historical Backtest</text><!--SRC=[XLHBJnH14Bxlh-XmWWHOGGNTWyckX602aGGD1-EXTwRPxJ1ChpsD6CF1HP8Luy63HW6Z0K9882GyVFJyc_ufLjNiB3Fxq6GoqrFrLNrVLLTtNVg2hIXbgkfL8LgLOODhliRMLAYykbPhWXczBZAUgCvzjI736blXGPJrLBctMjDgFVGz5IWDWJoCm2L2aq4jScsa9niyD0iod1EoLZTiwjP0nBBqJPrD349KEgGFYNIZBeqO05NQ5pg1LGE8-nViILrwgw688ZOnFe1wLeLcIRuM82u3c9ShObw6ud_2EhX_gCfZ1aagQwqs-YSWLt-TaNYnBa9FB412NXFbGDP2vi5U2LqeD6wgP4CbzZGIUeZnY1PvfxDdpkwwUCVPAnU_SVR4nIrdzrY9BOjg13LJuAm64IBqyy4uCM04R7dn4U4gYIKFyxdXLHu9mCrK23PJAHGsDpSBt3Fo9JSY4OOlDlQWGrPY4oL6ehRQ0ksfix6BtsLLOmqdv6ovkEdiD_JOO_orNvory3l4XekDW8SZDuITWdf99zkaaEAFi-VEDYdlbtPZWEuxcOzS_C7PpoJgcYAE2F8E5o3JxhDXYWGv5_I-7XdgmtUxbozDGE5xo3fCaFTK-ovpTZij-e2UoyH1zjOe8qrW_aJr7uyc123r9wQBjrBPmD4QwIFf3aX23HV4Rg5cZ6zHV6zpIINOBh0tITGXlfDnGizLlxhl8acJHEvZAgpW05ESKYTtUlQqIPQZRlv2cZAVVggK23ibXXQRLzo7Qo-7RezhYKsNg6SeePMEspcrC2Qw_8x7soJv4FiEcM7usV3YuwKdhCWRijXGsgoeGAfYGuj8cCpKfSUZ_SrB6CTfn-cv9CNK1NnERooexuHwSKOTsw7rvtGGkgU6Z5S40DT7MkzcoMSgo8i3Z-1BoWPj_KszxghvBP4Ua0RS03p4dS9WFLDXO_bw9fEAUZDt7vY2BxAPEW9p-pazVZktITz8nZ4b1wbVIMSpjUmbcvJDd3Q__xZSQv_2VShmYrWEqrPtBiZynkTlJ-pn5JcFq-a_nqne-TJLJhoHV1xLgufhl_XC-iz7Chf061wN4hkVd-7qQW2M7wmSmMonSX0eZnkfmimnd9EHKLfwFA2YZOXCjX6TkozZemiOhkI_]--></g></svg>