<?xml version="1.0" encoding="us-ascii" standalone="no"?><svg xmlns="http://www.w3.org/2000/svg" xmlns:xlink="http://www.w3.org/1999/xlink" contentStyleType="text/css" height="873px" preserveAspectRatio="none" style="width:1083px;height:873px;background:#FFFFFF;" version="1.1" viewBox="0 0 1083 873" width="1083px" zoomAndPan="magnify"><defs/><g><rect fill="#FFFFFF" height="55.1953" style="stroke:#FFFFFF;stroke-width:1.0;" width="1050.5" x="15" y="11.8906"/><ellipse cx="137.5" cy="82.0859" fill="#222222" rx="10" ry="10" style="stroke:#222222;stroke-width:1.0;"/><rect fill="#FFFFFF" height="34.1328" rx="12.5" ry="12.5" style="stroke:#000000;stroke-width:1.5;" width="154" x="60.5" y="112.0859"/><text fill="#000000" font-family="sans-serif" font-size="12" lengthAdjust="spacing" textLength="134" x="70.5" y="133.6875">&#3648;&#3586;&#3657;&#3634;&#3626;&#3641;&#3656;&#3627;&#3609;&#3657;&#3634;&#3649;&#3585;&#3657;&#3652;&#3586;&#3586;&#3657;&#3629;&#3617;&#3641;&#3621;&#3626;&#3656;&#3623;&#3609;&#3605;&#3633;&#3623;</text><rect fill="#FFFFFF" height="34.1328" rx="12.5" ry="12.5" style="stroke:#000000;stroke-width:1.5;" width="171" x="52" y="426.75"/><text fill="#000000" font-family="sans-serif" font-size="12" lengthAdjust="spacing" textLength="151" x="62" y="448.3516">&#3649;&#3585;&#3657;&#3652;&#3586;&#3586;&#3657;&#3629;&#3617;&#3641;&#3621;&#3626;&#3656;&#3623;&#3609;&#3605;&#3633;&#3623;&#3649;&#3621;&#3632;&#3585;&#3604;&#3618;&#3639;&#3609;&#3618;&#3633;&#3609;</text><ellipse cx="31" cy="806.5469" fill="none" rx="11" ry="11" style="stroke:#222222;stroke-width:1.0;"/><ellipse cx="31" cy="806.5469" fill="#222222" rx="6" ry="6" style="stroke:#222222;stroke-width:1.0;"/><polygon fill="#FFFFFF" points="137.5,382.75,149.5,394.75,137.5,406.75,125.5,394.75,137.5,382.75" style="stroke:#000000;stroke-width:1.5;"/><line style="stroke:#000000;stroke-width:1.5;" x1="15" x2="15" y1="11.8906" y2="861.5469"/><rect fill="#FFFFFF" height="34.1328" rx="12.5" ry="12.5" style="stroke:#000000;stroke-width:1.5;" width="240" x="302.75" y="166.2188"/><text fill="#000000" font-family="sans-serif" font-size="12" lengthAdjust="spacing" textLength="220" x="312.75" y="187.8203">&#3619;&#3657;&#3629;&#3591;&#3586;&#3629;&#3586;&#3657;&#3629;&#3617;&#3641;&#3621;&#3650;&#3611;&#3619;&#3652;&#3615;&#3621;&#3660;&#3611;&#3633;&#3592;&#3592;&#3640;&#3610;&#3633;&#3609; (GET /profile)</text><rect fill="#FFFFFF" height="34.1328" rx="12.5" ry="12.5" style="stroke:#000000;stroke-width:1.5;" width="179" x="333.25" y="328.6172"/><text fill="#000000" font-family="sans-serif" font-size="12" lengthAdjust="spacing" textLength="159" x="343.25" y="350.2188">&#3649;&#3626;&#3604;&#3591;&#3586;&#3657;&#3629;&#3617;&#3641;&#3621;&#3611;&#3633;&#3592;&#3592;&#3640;&#3610;&#3633;&#3609;&#3610;&#3609;&#3649;&#3610;&#3610;&#3615;&#3629;&#3619;&#3660;&#3617;</text><rect fill="#FFFFFF" height="34.1328" rx="12.5" ry="12.5" style="stroke:#000000;stroke-width:1.5;" width="178" x="333.75" y="480.8828"/><text fill="#000000" font-family="sans-serif" font-size="12" lengthAdjust="spacing" textLength="158" x="343.75" y="502.4844">&#3626;&#3656;&#3591;&#3586;&#3657;&#3629;&#3617;&#3641;&#3621;&#3607;&#3637;&#3656;&#3649;&#3585;&#3657;&#3652;&#3586; (PUT /profile)</text><rect fill="#FFFFFF" height="34.1328" rx="12.5" ry="12.5" style="stroke:#000000;stroke-width:1.5;" width="159" x="233" y="741.4141"/><text fill="#000000" font-family="sans-serif" font-size="12" lengthAdjust="spacing" textLength="139" x="243" y="763.0156">&#3649;&#3626;&#3604;&#3591;&#3612;&#3621;&#3586;&#3657;&#3629;&#3617;&#3641;&#3621;&#3650;&#3611;&#3619;&#3652;&#3615;&#3621;&#3660;&#3621;&#3656;&#3634;&#3626;&#3640;&#3604;</text><rect fill="#FFFFFF" height="34.1328" rx="12.5" ry="12.5" style="stroke:#000000;stroke-width:1.5;" width="193" x="436.5" y="687.2813"/><text fill="#000000" font-family="sans-serif" font-size="12" lengthAdjust="spacing" textLength="173" x="446.5" y="708.8828">&#3649;&#3626;&#3604;&#3591;&#3586;&#3657;&#3629;&#3588;&#3623;&#3634;&#3617;&#3649;&#3592;&#3657;&#3591;&#3648;&#3605;&#3639;&#3629;&#3609;&#3586;&#3657;&#3629;&#3612;&#3636;&#3604;&#3614;&#3621;&#3634;&#3604;</text><polygon fill="#FFFFFF" points="372.75,837.5469,472.75,837.5469,484.75,849.5469,472.75,861.5469,372.75,861.5469,360.75,849.5469,372.75,837.5469" style="stroke:#000000;stroke-width:1.5;"/><text fill="#000000" font-family="sans-serif" font-size="11" lengthAdjust="spacing" textLength="100" x="372.75" y="853.7041">&#3612;&#3641;&#3657;&#3651;&#3594;&#3657;&#3585;&#3621;&#3633;&#3610;&#3652;&#3611;&#3649;&#3585;&#3657;&#3652;&#3586;&#3586;&#3657;&#3629;&#3617;&#3641;&#3621;</text><text fill="#000000" font-family="sans-serif" font-size="11" lengthAdjust="spacing" textLength="70" x="484.75" y="847.2266">&#3585;&#3619;&#3629;&#3585;&#3586;&#3657;&#3629;&#3617;&#3641;&#3621;&#3651;&#3627;&#3617;&#3656;</text><line style="stroke:#000000;stroke-width:1.5;" x1="227" x2="227" y1="11.8906" y2="861.5469"/><rect fill="#FFFFFF" height="34.1328" rx="12.5" ry="12.5" style="stroke:#000000;stroke-width:1.5;" width="205" x="736.75" y="220.3516"/><text fill="#000000" font-family="sans-serif" font-size="12" lengthAdjust="spacing" textLength="185" x="746.75" y="241.9531">&#3604;&#3638;&#3591;&#3586;&#3657;&#3629;&#3617;&#3641;&#3621;&#3626;&#3656;&#3623;&#3609;&#3605;&#3633;&#3623;&#3586;&#3629;&#3591;&#3612;&#3641;&#3657;&#3651;&#3594;&#3657;&#3592;&#3634;&#3585;&#3600;&#3634;&#3609;&#3586;&#3657;&#3629;&#3617;&#3641;&#3621;</text><rect fill="#FFFFFF" height="34.1328" rx="12.5" ry="12.5" style="stroke:#000000;stroke-width:1.5;" width="137" x="770.75" y="274.4844"/><text fill="#000000" font-family="sans-serif" font-size="12" lengthAdjust="spacing" textLength="117" x="780.75" y="296.0859">&#3626;&#3656;&#3591;&#3586;&#3657;&#3629;&#3617;&#3641;&#3621;&#3650;&#3611;&#3619;&#3652;&#3615;&#3621;&#3660;&#3585;&#3621;&#3633;&#3610;&#3652;&#3611;</text><rect fill="#FFFFFF" height="34.1328" rx="12.5" ry="12.5" style="stroke:#000000;stroke-width:1.5;" width="203" x="737.75" y="535.0156"/><text fill="#000000" font-family="sans-serif" font-size="12" lengthAdjust="spacing" textLength="183" x="747.75" y="556.6172">&#3605;&#3619;&#3623;&#3592;&#3626;&#3629;&#3610;&#3588;&#3623;&#3634;&#3617;&#3606;&#3641;&#3585;&#3605;&#3657;&#3629;&#3591;&#3586;&#3629;&#3591;&#3586;&#3657;&#3629;&#3617;&#3641;&#3621;&#3651;&#3627;&#3617;&#3656;</text><polygon fill="#FFFFFF" points="808.25,589.1484,870.25,589.1484,882.25,601.1484,870.25,613.1484,808.25,613.1484,796.25,601.1484,808.25,589.1484" style="stroke:#000000;stroke-width:1.5;"/><text fill="#000000" font-family="sans-serif" font-size="11" lengthAdjust="spacing" textLength="62" x="808.25" y="605.3057">&#3586;&#3657;&#3629;&#3617;&#3641;&#3621;&#3606;&#3641;&#3585;&#3605;&#3657;&#3629;&#3591;?</text><text fill="#000000" font-family="sans-serif" font-size="11" lengthAdjust="spacing" textLength="12" x="784.25" y="598.8281">&#3651;&#3594;&#3656;</text><text fill="#000000" font-family="sans-serif" font-size="11" lengthAdjust="spacing" textLength="24" x="882.25" y="598.8281">&#3652;&#3617;&#3656;&#3651;&#3594;&#3656;</text><rect fill="#FFFFFF" height="34.1328" rx="12.5" ry="12.5" style="stroke:#000000;stroke-width:1.5;" width="179" x="639.5" y="633.1484"/><text fill="#000000" font-family="sans-serif" font-size="12" lengthAdjust="spacing" textLength="159" x="649.5" y="654.75">&#3629;&#3633;&#3611;&#3648;&#3604;&#3605;&#3586;&#3657;&#3629;&#3617;&#3641;&#3621;&#3626;&#3656;&#3623;&#3609;&#3605;&#3633;&#3623;&#3621;&#3591;&#3600;&#3634;&#3609;&#3586;&#3657;&#3629;&#3617;&#3641;&#3621;</text><rect fill="#FFFFFF" height="34.1328" rx="12.5" ry="12.5" style="stroke:#000000;stroke-width:1.5;" width="129" x="664.5" y="687.2813"/><text fill="#000000" font-family="sans-serif" font-size="12" lengthAdjust="spacing" textLength="109" x="674.5" y="708.8828">&#3626;&#3656;&#3591;&#3626;&#3606;&#3634;&#3609;&#3632;&#3629;&#3633;&#3611;&#3648;&#3604;&#3605;&#3626;&#3635;&#3648;&#3619;&#3655;&#3592;</text><rect fill="#FFFFFF" height="34.1328" rx="12.5" ry="12.5" style="stroke:#000000;stroke-width:1.5;" width="222" x="838.5" y="633.1484"/><text fill="#000000" font-family="sans-serif" font-size="12" lengthAdjust="spacing" textLength="202" x="848.5" y="654.75">&#3626;&#3656;&#3591;&#3626;&#3606;&#3634;&#3609;&#3632;&#3612;&#3636;&#3604;&#3614;&#3621;&#3634;&#3604; (400 Bad Request)</text><line style="stroke:#000000;stroke-width:1.5;" x1="633.5" x2="633.5" y1="11.8906" y2="861.5469"/><line style="stroke:#000000;stroke-width:1.5;" x1="1064.5" x2="1064.5" y1="11.8906" y2="861.5469"/><line style="stroke:#181818;stroke-width:0.7;" x1="137.5" x2="137.5" y1="92.0859" y2="112.0859"/><polygon fill="#181818" points="133.5,102.0859,137.5,112.0859,141.5,102.0859,137.5,106.0859" style="stroke:#181818;stroke-width:1.0;"/><line style="stroke:#181818;stroke-width:0.7;" x1="137.5" x2="137.5" y1="406.75" y2="426.75"/><polygon fill="#181818" points="133.5,416.75,137.5,426.75,141.5,416.75,137.5,420.75" style="stroke:#181818;stroke-width:1.0;"/><line style="stroke:#181818;stroke-width:0.7;" x1="839.25" x2="839.25" y1="254.4844" y2="274.4844"/><polygon fill="#181818" points="835.25,264.4844,839.25,274.4844,843.25,264.4844,839.25,268.4844" style="stroke:#181818;stroke-width:1.0;"/><line style="stroke:#181818;stroke-width:0.7;" x1="729" x2="729" y1="667.2813" y2="687.2813"/><polygon fill="#181818" points="725,677.2813,729,687.2813,733,677.2813,729,681.2813" style="stroke:#181818;stroke-width:1.0;"/><line style="stroke:#181818;stroke-width:0.7;" x1="796.25" x2="729" y1="601.1484" y2="601.1484"/><line style="stroke:#181818;stroke-width:0.7;" x1="729" x2="729" y1="601.1484" y2="633.1484"/><polygon fill="#181818" points="725,623.1484,729,633.1484,733,623.1484,729,627.1484" style="stroke:#181818;stroke-width:1.0;"/><line style="stroke:#181818;stroke-width:0.7;" x1="882.25" x2="949.5" y1="601.1484" y2="601.1484"/><line style="stroke:#181818;stroke-width:0.7;" x1="949.5" x2="949.5" y1="601.1484" y2="633.1484"/><polygon fill="#181818" points="945.5,623.1484,949.5,633.1484,953.5,623.1484,949.5,627.1484" style="stroke:#181818;stroke-width:1.0;"/><line style="stroke:#181818;stroke-width:0.7;" x1="839.25" x2="839.25" y1="569.1484" y2="589.1484"/><polygon fill="#181818" points="835.25,579.1484,839.25,589.1484,843.25,579.1484,839.25,583.1484" style="stroke:#181818;stroke-width:1.0;"/><line style="stroke:#181818;stroke-width:0.7;" x1="137.5" x2="137.5" y1="146.2188" y2="151.2188"/><line style="stroke:#181818;stroke-width:0.7;" x1="137.5" x2="422.75" y1="151.2188" y2="151.2188"/><line style="stroke:#181818;stroke-width:0.7;" x1="422.75" x2="422.75" y1="151.2188" y2="166.2188"/><polygon fill="#181818" points="418.75,156.2188,422.75,166.2188,426.75,156.2188,422.75,160.2188" style="stroke:#181818;stroke-width:1.0;"/><line style="stroke:#181818;stroke-width:0.7;" x1="422.75" x2="422.75" y1="200.3516" y2="205.3516"/><line style="stroke:#181818;stroke-width:0.7;" x1="422.75" x2="839.25" y1="205.3516" y2="205.3516"/><line style="stroke:#181818;stroke-width:0.7;" x1="839.25" x2="839.25" y1="205.3516" y2="220.3516"/><polygon fill="#181818" points="835.25,210.3516,839.25,220.3516,843.25,210.3516,839.25,214.3516" style="stroke:#181818;stroke-width:1.0;"/><line style="stroke:#181818;stroke-width:0.7;" x1="839.25" x2="839.25" y1="308.6172" y2="313.6172"/><line style="stroke:#181818;stroke-width:0.7;" x1="839.25" x2="422.75" y1="313.6172" y2="313.6172"/><line style="stroke:#181818;stroke-width:0.7;" x1="422.75" x2="422.75" y1="313.6172" y2="328.6172"/><polygon fill="#181818" points="418.75,318.6172,422.75,328.6172,426.75,318.6172,422.75,322.6172" style="stroke:#181818;stroke-width:1.0;"/><line style="stroke:#181818;stroke-width:0.7;" x1="137.5" x2="137.5" y1="460.8828" y2="465.8828"/><line style="stroke:#181818;stroke-width:0.7;" x1="137.5" x2="422.75" y1="465.8828" y2="465.8828"/><line style="stroke:#181818;stroke-width:0.7;" x1="422.75" x2="422.75" y1="465.8828" y2="480.8828"/><polygon fill="#181818" points="418.75,470.8828,422.75,480.8828,426.75,470.8828,422.75,474.8828" style="stroke:#181818;stroke-width:1.0;"/><line style="stroke:#181818;stroke-width:0.7;" x1="422.75" x2="422.75" y1="515.0156" y2="520.0156"/><line style="stroke:#181818;stroke-width:0.7;" x1="422.75" x2="839.25" y1="520.0156" y2="520.0156"/><line style="stroke:#181818;stroke-width:0.7;" x1="839.25" x2="839.25" y1="520.0156" y2="535.0156"/><polygon fill="#181818" points="835.25,525.0156,839.25,535.0156,843.25,525.0156,839.25,529.0156" style="stroke:#181818;stroke-width:1.0;"/><line style="stroke:#181818;stroke-width:0.7;" x1="729" x2="729" y1="721.4141" y2="726.4141"/><line style="stroke:#181818;stroke-width:0.7;" x1="729" x2="312.5" y1="726.4141" y2="726.4141"/><line style="stroke:#181818;stroke-width:0.7;" x1="312.5" x2="312.5" y1="726.4141" y2="741.4141"/><polygon fill="#181818" points="308.5,731.4141,312.5,741.4141,316.5,731.4141,312.5,735.4141" style="stroke:#181818;stroke-width:1.0;"/><line style="stroke:#181818;stroke-width:0.7;" x1="312.5" x2="312.5" y1="775.5469" y2="780.5469"/><line style="stroke:#181818;stroke-width:0.7;" x1="312.5" x2="31" y1="780.5469" y2="780.5469"/><line style="stroke:#181818;stroke-width:0.7;" x1="31" x2="31" y1="780.5469" y2="795.5469"/><polygon fill="#181818" points="27,785.5469,31,795.5469,35,785.5469,31,789.5469" style="stroke:#181818;stroke-width:1.0;"/><line style="stroke:#181818;stroke-width:0.7;" x1="949.5" x2="949.5" y1="667.2813" y2="672.2813"/><line style="stroke:#181818;stroke-width:0.7;" x1="949.5" x2="533" y1="672.2813" y2="672.2813"/><line style="stroke:#181818;stroke-width:0.7;" x1="533" x2="533" y1="672.2813" y2="687.2813"/><polygon fill="#181818" points="529,677.2813,533,687.2813,537,677.2813,533,681.2813" style="stroke:#181818;stroke-width:1.0;"/><line style="stroke:#181818;stroke-width:0.7;" x1="533" x2="533" y1="721.4141" y2="822.5469"/><line style="stroke:#181818;stroke-width:0.7;" x1="533" x2="422.75" y1="822.5469" y2="822.5469"/><line style="stroke:#181818;stroke-width:0.7;" x1="422.75" x2="422.75" y1="822.5469" y2="837.5469"/><polygon fill="#181818" points="418.75,827.5469,422.75,837.5469,426.75,827.5469,422.75,831.5469" style="stroke:#181818;stroke-width:1.0;"/><line style="stroke:#181818;stroke-width:0.7;" x1="484.75" x2="655.25" y1="849.5469" y2="849.5469"/><polygon fill="#181818" points="651.25,640.1484,655.25,630.1484,659.25,640.1484,655.25,636.1484" style="stroke:#181818;stroke-width:0.7;"/><line style="stroke:#181818;stroke-width:0.7;" x1="655.25" x2="655.25" y1="394.75" y2="849.5469"/><line style="stroke:#181818;stroke-width:0.7;" x1="655.25" x2="149.5" y1="394.75" y2="394.75"/><polygon fill="#181818" points="159.5,390.75,149.5,394.75,159.5,398.75,155.5,394.75" style="stroke:#181818;stroke-width:1.0;"/><line style="stroke:#181818;stroke-width:0.7;" x1="422.75" x2="422.75" y1="362.75" y2="367.75"/><line style="stroke:#181818;stroke-width:0.7;" x1="422.75" x2="137.5" y1="367.75" y2="367.75"/><line style="stroke:#181818;stroke-width:0.7;" x1="137.5" x2="137.5" y1="367.75" y2="382.75"/><polygon fill="#181818" points="133.5,372.75,137.5,382.75,141.5,372.75,137.5,376.75" style="stroke:#181818;stroke-width:1.0;"/><text fill="#000000" font-family="Arial" font-size="16" lengthAdjust="spacing" textLength="34" x="104" y="26.8984">User</text><text fill="#000000" font-family="Arial" font-size="16" lengthAdjust="spacing" textLength="4" x="104" y="45.2969">&#160;</text><text fill="#000000" font-family="Arial" font-size="16" lengthAdjust="spacing" textLength="4" x="104" y="63.6953">&#160;</text><text fill="#000000" font-family="Arial" font-size="16" lengthAdjust="spacing" textLength="170" x="345.25" y="26.8984">&#3627;&#3609;&#3657;&#3634;&#3649;&#3585;&#3657;&#3652;&#3586;&#3586;&#3657;&#3629;&#3617;&#3641;&#3621; : Website</text><text fill="#000000" font-family="Arial" font-size="16" lengthAdjust="spacing" textLength="4" x="345.25" y="45.2969">&#160;</text><text fill="#000000" font-family="Arial" font-size="16" lengthAdjust="spacing" textLength="4" x="345.25" y="63.6953">&#160;</text><text fill="#000000" font-family="Arial" font-size="16" lengthAdjust="spacing" textLength="99" x="799.5" y="26.8984">backend : API</text><text fill="#000000" font-family="Arial" font-size="16" lengthAdjust="spacing" textLength="4" x="799.5" y="45.2969">&#160;</text><text fill="#000000" font-family="Arial" font-size="16" lengthAdjust="spacing" textLength="4" x="799.5" y="63.6953">&#160;</text><!--SRC=[jLNFJnD15BxlNp77ze8b4KtQWob4ZHT31EA5oz9EwQJRtJgps6WuM6d2IZnuA9fI8Yc4c62Q0FwQ_M_cJ_7Ds-swnM4fDYOzJDzyxxtlVVFDh6WmjsLpkqcQdkjLwjnhKkBpBMg9P4VKxQhNPkucgTcEIEzis9N69lUst6h5SpnEsdNcf_UvxJO4RP65WfMAhhHPqx5TkkZnAkLBcBdXGAbhCQjrLccuL0WoFxTWGYKybemynhXLvZkt0p_oN3-ROG9ROQyfcR-N1NbgWxfbpcmdhKUvuhENp7zr4x44bw7R9EOwtSgSU-q_cuMv-vQrlIOeNtVNtMrB-3RthQ8AtoZvLeNlbBnKyap9K8M1ab-LxCV1iADaHw_3haR6u96IGmsMfpfBftpHAN9VoGjObwpjMnKXHVASRWZG8c9NLF9a3Dd5Z96XSmZn0IAXwX56tcC4A0JuaqeUuDy-oJr-k4hkjBXNOmxD0q5jREfMeNLv-KdIjgVapxZd57EEgG7-4BM32NUKtCFS03M5oJ_WelztpPBk69NTdNg-3fAvq9Ff-61shNN66OvkdDiiA2xwc7k0loFCEa6EmvB5QOlQlaL8odI45F_DJvW5M-SuFX0zLl8N0euZDYNTQ2OPDBUCiv2VbFoXToVhajposeIjW8R1M5XyNwkZvmfGxX6griN89JRwYBqw6ddL-qPxxE30Gs2b-x8QoPc86we-o1E_Jbt0nsuDyb00IOvGpm6-2ptaFEL5E4MI6LQF6oGIdo6r27rkQWo0R_WNF0Nu82enwocFFPWO_X2vJtdvJf5zz5J2NUZ5dD8M9qJuNWiM53waMk9kT4PNj3RR95CYOFeTMNz6oX3laTpTGe4isbNoZBxOeiBF_oULafIKOJKWmFWkdjC-NihHvFaRI6kAC3chnO-4_WewMYh38thrjRjnbZnXGfVgu6qRuIBhwkH_0m00]--></g></svg>