<?xml version="1.0" encoding="us-ascii" standalone="no"?><svg xmlns="http://www.w3.org/2000/svg" xmlns:xlink="http://www.w3.org/1999/xlink" contentStyleType="text/css" height="362px" preserveAspectRatio="none" style="width:442px;height:362px;background:#FFFFFF;" version="1.1" viewBox="0 0 442 362" width="442px" zoomAndPan="magnify"><defs/><g><rect fill="#FFFFFF" height="55.1953" style="stroke:#FFFFFF;stroke-width:1.0;" width="409" x="15" y="11.8906"/><ellipse cx="80" cy="82.0859" fill="#222222" rx="10" ry="10" style="stroke:#222222;stroke-width:1.0;"/><rect fill="#FFFFFF" height="34.1328" rx="12.5" ry="12.5" style="stroke:#000000;stroke-width:1.5;" width="118" x="21" y="112.0859"/><text fill="#000000" font-family="sans-serif" font-size="12" lengthAdjust="spacing" textLength="98" x="31" y="133.6875">&#3585;&#3604;&#3611;&#3640;&#3656;&#3617;&#3629;&#3629;&#3585;&#3592;&#3634;&#3585;&#3619;&#3632;&#3610;&#3610;</text><ellipse cx="80" cy="339.6172" fill="none" rx="11" ry="11" style="stroke:#222222;stroke-width:1.0;"/><ellipse cx="80" cy="339.6172" fill="#222222" rx="6" ry="6" style="stroke:#222222;stroke-width:1.0;"/><line style="stroke:#000000;stroke-width:1.5;" x1="15" x2="15" y1="11.8906" y2="350.6172"/><rect fill="#FFFFFF" height="34.1328" rx="12.5" ry="12.5" style="stroke:#000000;stroke-width:1.5;" width="270" x="149" y="166.2188"/><text fill="#000000" font-family="sans-serif" font-size="12" lengthAdjust="spacing" textLength="250" x="159" y="187.8203">&#3621;&#3610; Token &#3629;&#3629;&#3585;&#3592;&#3634;&#3585;&#3627;&#3609;&#3656;&#3623;&#3618;&#3588;&#3623;&#3634;&#3617;&#3592;&#3635;/Local Storage</text><rect fill="#FFFFFF" height="34.1328" rx="12.5" ry="12.5" style="stroke:#000000;stroke-width:1.5;" width="211" x="178.5" y="220.3516"/><text fill="#000000" font-family="sans-serif" font-size="12" lengthAdjust="spacing" textLength="191" x="188.5" y="241.9531">&#3648;&#3611;&#3621;&#3637;&#3656;&#3618;&#3609;&#3648;&#3626;&#3657;&#3609;&#3607;&#3634;&#3591; (Redirect) &#3652;&#3611;&#3627;&#3609;&#3657;&#3634;&#3627;&#3621;&#3633;&#3585;</text><rect fill="#FFFFFF" height="34.1328" rx="12.5" ry="12.5" style="stroke:#000000;stroke-width:1.5;" width="253" x="157.5" y="274.4844"/><text fill="#000000" font-family="sans-serif" font-size="12" lengthAdjust="spacing" textLength="233" x="167.5" y="296.0859">&#3649;&#3626;&#3604;&#3591;&#3627;&#3609;&#3657;&#3634;&#3627;&#3621;&#3633;&#3585;&#3586;&#3629;&#3591;&#3648;&#3623;&#3655;&#3610;&#3652;&#3595;&#3605;&#3660; (&#3626;&#3606;&#3634;&#3609;&#3632;&#3618;&#3633;&#3591;&#3652;&#3617;&#3656; Login)</text><line style="stroke:#000000;stroke-width:1.5;" x1="143" x2="143" y1="11.8906" y2="350.6172"/><line style="stroke:#000000;stroke-width:1.5;" x1="423" x2="423" y1="11.8906" y2="350.6172"/><line style="stroke:#181818;stroke-width:0.7;" x1="80" x2="80" y1="92.0859" y2="112.0859"/><polygon fill="#181818" points="76,102.0859,80,112.0859,84,102.0859,80,106.0859" style="stroke:#181818;stroke-width:1.0;"/><line style="stroke:#181818;stroke-width:0.7;" x1="284" x2="284" y1="200.3516" y2="220.3516"/><polygon fill="#181818" points="280,210.3516,284,220.3516,288,210.3516,284,214.3516" style="stroke:#181818;stroke-width:1.0;"/><line style="stroke:#181818;stroke-width:0.7;" x1="284" x2="284" y1="254.4844" y2="274.4844"/><polygon fill="#181818" points="280,264.4844,284,274.4844,288,264.4844,284,268.4844" style="stroke:#181818;stroke-width:1.0;"/><line style="stroke:#181818;stroke-width:0.7;" x1="80" x2="80" y1="146.2188" y2="151.2188"/><line style="stroke:#181818;stroke-width:0.7;" x1="80" x2="284" y1="151.2188" y2="151.2188"/><line style="stroke:#181818;stroke-width:0.7;" x1="284" x2="284" y1="151.2188" y2="166.2188"/><polygon fill="#181818" points="280,156.2188,284,166.2188,288,156.2188,284,160.2188" style="stroke:#181818;stroke-width:1.0;"/><line style="stroke:#181818;stroke-width:0.7;" x1="284" x2="284" y1="308.6172" y2="313.6172"/><line style="stroke:#181818;stroke-width:0.7;" x1="284" x2="80" y1="313.6172" y2="313.6172"/><line style="stroke:#181818;stroke-width:0.7;" x1="80" x2="80" y1="313.6172" y2="328.6172"/><polygon fill="#181818" points="76,318.6172,80,328.6172,84,318.6172,80,322.6172" style="stroke:#181818;stroke-width:1.0;"/><text fill="#000000" font-family="Arial" font-size="16" lengthAdjust="spacing" textLength="92" x="33" y="26.8984">User / Admin</text><text fill="#000000" font-family="Arial" font-size="16" lengthAdjust="spacing" textLength="4" x="33" y="45.2969">&#160;</text><text fill="#000000" font-family="Arial" font-size="16" lengthAdjust="spacing" textLength="4" x="33" y="63.6953">&#160;</text><text fill="#000000" font-family="Arial" font-size="16" lengthAdjust="spacing" textLength="121" x="222.5" y="26.8984">&#3627;&#3609;&#3657;&#3634;&#3648;&#3623;&#3655;&#3610; : Website</text><text fill="#000000" font-family="Arial" font-size="16" lengthAdjust="spacing" textLength="4" x="222.5" y="45.2969">&#160;</text><text fill="#000000" font-family="Arial" font-size="16" lengthAdjust="spacing" textLength="4" x="222.5" y="63.6953">&#160;</text><!--SRC=[bP5DJnin48Rl-olc21S-3hGIEQL8d107aefBBywkcrYxQqUs8MgL0rH8IzKU-w6G4wag910I7qAQ_JVpK_0EQbYa9AXQ7-nvttdyUjQbIlU55JdaHfkuPqqkmTi36RcfudeYCGEbk_1HPAwkT4ISTgqvq4biCcDXq5E-hbkXKoVxiB4MrQgjWSepeUKxOnDfjxYpamNKN4-xf-9KI-TWVMLZbckQOsjcZd- -jlBP_vctZVQB4qvjBVLPmlgRHPPT4QRRj4fazNaqOwyEbV_qMh2fRy7SNdhcpQrfhHayYsihRwDe-Dv92wlGJ7AbFuHl63alh8ys2Oy9Vn2E2P7AKy9pmcjUeHwETxpvGtX3U1PM8neINX6EgFnQgUKHuGMLHP1W4_PbnuLtFTqGs7-hSjkaKiCix1Fdj2BWXF24DtUS8HJlLtTCB39eUMD5LpO2iBfjpDW7xfim81GlESw8y3S32bZQaucoClRBGEK9TzLIL_i0kGqf67jS4Qen5FDiX5yuVb5_CPE_4VwayZiiCUCNzuruNXDkBTXr7lB2ZkaglToO_JjC_n40]--></g></svg>