<?xml version="1.0" encoding="us-ascii" standalone="no"?><svg xmlns="http://www.w3.org/2000/svg" xmlns:xlink="http://www.w3.org/1999/xlink" contentStyleType="text/css" height="741px" preserveAspectRatio="none" style="width:951px;height:741px;background:#FFFFFF;" version="1.1" viewBox="0 0 951 741" width="951px" zoomAndPan="magnify"><defs/><g><rect fill="#FFFFFF" height="55.1953" style="stroke:#FFFFFF;stroke-width:1.0;" width="918" x="15" y="11.8906"/><ellipse cx="197.5" cy="82.0859" fill="#222222" rx="10" ry="10" style="stroke:#222222;stroke-width:1.0;"/><rect fill="#FFFFFF" height="34.1328" rx="12.5" ry="12.5" style="stroke:#000000;stroke-width:1.5;" width="187" x="104" y="112.0859"/><text fill="#000000" font-family="sans-serif" font-size="12" lengthAdjust="spacing" textLength="167" x="114" y="133.6875">&#3648;&#3586;&#3657;&#3634;&#3626;&#3641;&#3656;&#3627;&#3609;&#3657;&#3634; "&#3623;&#3634;&#3591;&#3649;&#3612;&#3609;&#3621;&#3591;&#3607;&#3640;&#3609;" (/plan)</text><rect fill="#FFFFFF" height="34.1328" rx="12.5" ry="12.5" style="stroke:#000000;stroke-width:1.5;" width="197" x="99" y="166.2188"/><text fill="#000000" font-family="sans-serif" font-size="12" lengthAdjust="spacing" textLength="177" x="109" y="187.8203">&#3648;&#3621;&#3639;&#3629;&#3585;&#3649;&#3607;&#3655;&#3610; "&#3614;&#3629;&#3619;&#3660;&#3605;&#3626;&#3635;&#3648;&#3619;&#3655;&#3592;&#3619;&#3641;&#3611; (&#3649;&#3609;&#3632;&#3609;&#3635;)"</text><rect fill="#FFFFFF" height="34.1328" rx="12.5" ry="12.5" style="stroke:#000000;stroke-width:1.5;" width="353" x="21" y="220.3516"/><text fill="#000000" font-family="sans-serif" font-size="12" lengthAdjust="spacing" textLength="333" x="31" y="241.9531">&#3648;&#3621;&#3639;&#3629;&#3585;&#3619;&#3641;&#3611;&#3649;&#3610;&#3610; (&#3648;&#3594;&#3656;&#3609; &#3614;&#3629;&#3619;&#3660;&#3605;&#3588;&#3623;&#3634;&#3617;&#3617;&#3633;&#3656;&#3609;&#3588;&#3591;, &#3614;&#3629;&#3619;&#3660;&#3605;&#3626;&#3617;&#3604;&#3640;&#3621;, &#3614;&#3629;&#3619;&#3660;&#3605;&#3648;&#3605;&#3636;&#3610;&#3650;&#3605;&#3626;&#3641;&#3591;)</text><rect fill="#FFFFFF" height="34.1328" rx="12.5" ry="12.5" style="stroke:#000000;stroke-width:1.5;" width="177" x="109" y="274.4844"/><text fill="#000000" font-family="sans-serif" font-size="12" lengthAdjust="spacing" textLength="157" x="119" y="296.0859">&#3619;&#3632;&#3610;&#3640; "&#3648;&#3591;&#3636;&#3609;&#3621;&#3591;&#3607;&#3640;&#3609;" &#3649;&#3621;&#3632; "&#3619;&#3632;&#3618;&#3632;&#3648;&#3623;&#3621;&#3634;"</text><rect fill="#FFFFFF" height="34.1328" rx="12.5" ry="12.5" style="stroke:#000000;stroke-width:1.5;" width="156" x="119.5" y="328.6172"/><text fill="#000000" font-family="sans-serif" font-size="12" lengthAdjust="spacing" textLength="136" x="129.5" y="350.2188">&#3585;&#3604;&#3611;&#3640;&#3656;&#3617; "&#3626;&#3619;&#3657;&#3634;&#3591;&#3649;&#3612;&#3609;&#3585;&#3634;&#3619;&#3621;&#3591;&#3607;&#3640;&#3609;"</text><ellipse cx="197.5" cy="718.5469" fill="none" rx="11" ry="11" style="stroke:#222222;stroke-width:1.0;"/><ellipse cx="197.5" cy="718.5469" fill="#222222" rx="6" ry="6" style="stroke:#222222;stroke-width:1.0;"/><line style="stroke:#000000;stroke-width:1.5;" x1="15" x2="15" y1="11.8906" y2="729.5469"/><rect fill="#FFFFFF" height="34.1328" rx="12.5" ry="12.5" style="stroke:#000000;stroke-width:1.5;" width="239" x="427" y="382.75"/><text fill="#000000" font-family="sans-serif" font-size="12" lengthAdjust="spacing" textLength="219" x="437" y="404.3516">&#3649;&#3626;&#3604;&#3591; Loading &#3649;&#3621;&#3632;&#3626;&#3656;&#3591;&#3586;&#3657;&#3629;&#3617;&#3641;&#3621;&#3614;&#3629;&#3619;&#3660;&#3605;&#3652;&#3611;&#3618;&#3633;&#3591; API</text><rect fill="#FFFFFF" height="34.1328" rx="12.5" ry="12.5" style="stroke:#000000;stroke-width:1.5;" width="325" x="384" y="599.2813"/><text fill="#000000" font-family="sans-serif" font-size="12" lengthAdjust="spacing" textLength="305" x="394" y="620.8828">&#3648;&#3611;&#3621;&#3637;&#3656;&#3618;&#3609;&#3627;&#3609;&#3657;&#3634;&#3652;&#3611;&#3618;&#3633;&#3591; "&#3627;&#3609;&#3657;&#3634;&#3619;&#3634;&#3618;&#3621;&#3632;&#3648;&#3629;&#3637;&#3618;&#3604;&#3614;&#3629;&#3619;&#3660;&#3605;" (/dashboard/[id])</text><rect fill="#FFFFFF" height="34.1328" rx="12.5" ry="12.5" style="stroke:#000000;stroke-width:1.5;" width="301" x="396" y="653.4141"/><text fill="#000000" font-family="sans-serif" font-size="12" lengthAdjust="spacing" textLength="281" x="406" y="675.0156">&#3649;&#3626;&#3604;&#3591;&#3585;&#3619;&#3634;&#3615; Asset Allocation &#3649;&#3621;&#3632; Historical Backtest</text><line style="stroke:#000000;stroke-width:1.5;" x1="378" x2="378" y1="11.8906" y2="729.5469"/><rect fill="#FFFFFF" height="34.1328" rx="12.5" ry="12.5" style="stroke:#000000;stroke-width:1.5;" width="209" x="719" y="436.8828"/><text fill="#000000" font-family="sans-serif" font-size="12" lengthAdjust="spacing" textLength="189" x="729" y="458.4844">&#3592;&#3633;&#3604;&#3626;&#3619;&#3619;&#3626;&#3633;&#3604;&#3626;&#3656;&#3623;&#3609;&#3627;&#3640;&#3657;&#3609;&#3605;&#3634;&#3617;&#3619;&#3641;&#3611;&#3649;&#3610;&#3610;&#3617;&#3634;&#3605;&#3619;&#3600;&#3634;&#3609;</text><rect fill="#FFFFFF" height="34.1328" rx="12.5" ry="12.5" style="stroke:#000000;stroke-width:1.5;" width="163" x="742" y="491.0156"/><text fill="#000000" font-family="sans-serif" font-size="12" lengthAdjust="spacing" textLength="143" x="752" y="512.6172">&#3610;&#3633;&#3609;&#3607;&#3638;&#3585;&#3614;&#3629;&#3619;&#3660;&#3605;&#3651;&#3627;&#3617;&#3656;&#3621;&#3591;&#3600;&#3634;&#3609;&#3586;&#3657;&#3629;&#3617;&#3641;&#3621;</text><rect fill="#FFFFFF" height="34.1328" rx="12.5" ry="12.5" style="stroke:#000000;stroke-width:1.5;" width="104" x="771.5" y="545.1484"/><text fill="#000000" font-family="sans-serif" font-size="12" lengthAdjust="spacing" textLength="84" x="781.5" y="566.75">&#3626;&#3656;&#3591;&#3612;&#3621;&#3621;&#3633;&#3614;&#3608;&#3660;&#3585;&#3621;&#3633;&#3610;&#3652;&#3611;</text><line style="stroke:#000000;stroke-width:1.5;" x1="713" x2="713" y1="11.8906" y2="729.5469"/><line style="stroke:#000000;stroke-width:1.5;" x1="932" x2="932" y1="11.8906" y2="729.5469"/><line style="stroke:#181818;stroke-width:0.7;" x1="197.5" x2="197.5" y1="92.0859" y2="112.0859"/><polygon fill="#181818" points="193.5,102.0859,197.5,112.0859,201.5,102.0859,197.5,106.0859" style="stroke:#181818;stroke-width:1.0;"/><line style="stroke:#181818;stroke-width:0.7;" x1="197.5" x2="197.5" y1="146.2188" y2="166.2188"/><polygon fill="#181818" points="193.5,156.2188,197.5,166.2188,201.5,156.2188,197.5,160.2188" style="stroke:#181818;stroke-width:1.0;"/><line style="stroke:#181818;stroke-width:0.7;" x1="197.5" x2="197.5" y1="200.3516" y2="220.3516"/><polygon fill="#181818" points="193.5,210.3516,197.5,220.3516,201.5,210.3516,197.5,214.3516" style="stroke:#181818;stroke-width:1.0;"/><line style="stroke:#181818;stroke-width:0.7;" x1="197.5" x2="197.5" y1="254.4844" y2="274.4844"/><polygon fill="#181818" points="193.5,264.4844,197.5,274.4844,201.5,264.4844,197.5,268.4844" style="stroke:#181818;stroke-width:1.0;"/><line style="stroke:#181818;stroke-width:0.7;" x1="197.5" x2="197.5" y1="308.6172" y2="328.6172"/><polygon fill="#181818" points="193.5,318.6172,197.5,328.6172,201.5,318.6172,197.5,322.6172" style="stroke:#181818;stroke-width:1.0;"/><line style="stroke:#181818;stroke-width:0.7;" x1="546.5" x2="546.5" y1="633.4141" y2="653.4141"/><polygon fill="#181818" points="542.5,643.4141,546.5,653.4141,550.5,643.4141,546.5,647.4141" style="stroke:#181818;stroke-width:1.0;"/><line style="stroke:#181818;stroke-width:0.7;" x1="823.5" x2="823.5" y1="471.0156" y2="491.0156"/><polygon fill="#181818" points="819.5,481.0156,823.5,491.0156,827.5,481.0156,823.5,485.0156" style="stroke:#181818;stroke-width:1.0;"/><line style="stroke:#181818;stroke-width:0.7;" x1="823.5" x2="823.5" y1="525.1484" y2="545.1484"/><polygon fill="#181818" points="819.5,535.1484,823.5,545.1484,827.5,535.1484,823.5,539.1484" style="stroke:#181818;stroke-width:1.0;"/><line style="stroke:#181818;stroke-width:0.7;" x1="197.5" x2="197.5" y1="362.75" y2="367.75"/><line style="stroke:#181818;stroke-width:0.7;" x1="197.5" x2="546.5" y1="367.75" y2="367.75"/><line style="stroke:#181818;stroke-width:0.7;" x1="546.5" x2="546.5" y1="367.75" y2="382.75"/><polygon fill="#181818" points="542.5,372.75,546.5,382.75,550.5,372.75,546.5,376.75" style="stroke:#181818;stroke-width:1.0;"/><line style="stroke:#181818;stroke-width:0.7;" x1="546.5" x2="546.5" y1="416.8828" y2="421.8828"/><line style="stroke:#181818;stroke-width:0.7;" x1="546.5" x2="823.5" y1="421.8828" y2="421.8828"/><line style="stroke:#181818;stroke-width:0.7;" x1="823.5" x2="823.5" y1="421.8828" y2="436.8828"/><polygon fill="#181818" points="819.5,426.8828,823.5,436.8828,827.5,426.8828,823.5,430.8828" style="stroke:#181818;stroke-width:1.0;"/><line style="stroke:#181818;stroke-width:0.7;" x1="823.5" x2="823.5" y1="579.2813" y2="584.2813"/><line style="stroke:#181818;stroke-width:0.7;" x1="823.5" x2="546.5" y1="584.2813" y2="584.2813"/><line style="stroke:#181818;stroke-width:0.7;" x1="546.5" x2="546.5" y1="584.2813" y2="599.2813"/><polygon fill="#181818" points="542.5,589.2813,546.5,599.2813,550.5,589.2813,546.5,593.2813" style="stroke:#181818;stroke-width:1.0;"/><line style="stroke:#181818;stroke-width:0.7;" x1="546.5" x2="546.5" y1="687.5469" y2="692.5469"/><line style="stroke:#181818;stroke-width:0.7;" x1="546.5" x2="197.5" y1="692.5469" y2="692.5469"/><line style="stroke:#181818;stroke-width:0.7;" x1="197.5" x2="197.5" y1="692.5469" y2="707.5469"/><polygon fill="#181818" points="193.5,697.5469,197.5,707.5469,201.5,697.5469,197.5,701.5469" style="stroke:#181818;stroke-width:1.0;"/><text fill="#000000" font-family="Arial" font-size="16" lengthAdjust="spacing" textLength="34" x="179.5" y="26.8984">User</text><text fill="#000000" font-family="Arial" font-size="16" lengthAdjust="spacing" textLength="4" x="179.5" y="45.2969">&#160;</text><text fill="#000000" font-family="Arial" font-size="16" lengthAdjust="spacing" textLength="4" x="179.5" y="63.6953">&#160;</text><text fill="#000000" font-family="Arial" font-size="16" lengthAdjust="spacing" textLength="121" x="485" y="26.8984">&#3627;&#3609;&#3657;&#3634;&#3648;&#3623;&#3655;&#3610; : Website</text><text fill="#000000" font-family="Arial" font-size="16" lengthAdjust="spacing" textLength="4" x="485" y="45.2969">&#160;</text><text fill="#000000" font-family="Arial" font-size="16" lengthAdjust="spacing" textLength="4" x="485" y="63.6953">&#160;</text><text fill="#000000" font-family="Arial" font-size="16" lengthAdjust="spacing" textLength="99" x="773" y="26.8984">backend : API</text><text fill="#000000" font-family="Arial" font-size="16" lengthAdjust="spacing" textLength="4" x="773" y="45.2969">&#160;</text><text fill="#000000" font-family="Arial" font-size="16" lengthAdjust="spacing" textLength="4" x="773" y="63.6953">&#160;</text><!--SRC=[bLHDQzj04BthLom-9L3oSKWBoKaDb1PAAIIbXwQ7jQJ6YsMjsTtKjFWGfm4dfOSU75AxeIKsnk1WI9n-hFxD_fJkZ2BvCoa18QIPD_FUl1r95bbKfeAMI8b7t2i8NWg84dk18xECB52VLrYqIzxHK8vdyjGhxWg-5_aU3xaWbG9Jutb1ew8CocHjnHcBRbLOAQHHy9WBFn2RM9aFRQjRCTi5vXMZG4gokhGs3vNfs9oh8yLjCnNU3_o4H-fkXHbiYtqCoEh3ko0lg7NN5Oo6utwudcBlcVhmFs4PxWxV9Z6t-UOAmIkZvChI8yUflfA1s8bsegeZ5HNAMJVnlj479ZusUcXqt-ZOn4T6NnZTJ88aPtGFatKJrum-Wupkmgi-DLhRrnnPM2vR3nOtRlhPx5-Z1qRNiEJKn1RSWau_CDmnyHUZJv3l6Yiw23c21wj0VoSBM6cPBl5-lPYRqpn58xO550i8-OmpDCaCts4wopbULmaEu_K7P9uyYshWbDtPF51Pr2_WZW_I2YkeZaw0kalKfUte0AuZUDO-r6zZbs1HKjM6EzJqC3F4yM7a1inhwq3vEU3xAEXuveXg6EbCasqurV7ZlU583cYTl0xoqYvaiYBhsAsFd7Nod5CV_W-PM4Y1YdgwG0EqAyRib5E7gBeDbjjMxijdLWRyM8B8jwpsFMM47RX2HfmBhlue0dGzdEu2FJZ6vvFqIAVN0OD31DZKLtnkef4jxDb4M_wWLrE2Fo75EJ8c1jwKpmwB3JChpX3VnVwsvpTiM4iZhSIA-nt2Fffd6_n6adPgG5OzwMvk8WcJ3p7PJLTg09qWqfWQ6pvadyf2dbFXBxzX_jlaanvjGVhLsOu_YIjbe8WRXjoZYl5eR8-VCgcuO1uD2VpnL23LnkJVXvV_0G00]--></g></svg>